<svg width="70" height="71" viewBox="0 0 70 71" fill="none" xmlns="http://www.w3.org/2000/svg">
<g clip-path="url(#clip0)">
<path d="M59.7483 11.0765C53.3359 4.772 44.7123 1.22507 35.7198 1.19341C26.7273 1.16175 18.0789 4.64787 11.6222 10.907C5.16552 17.1662 1.41246 25.7021 1.16478 34.6912C0.917108 43.6804 4.19446 52.41 10.2967 59.0152C7.02131 55.7949 4.42303 51.9522 2.65473 47.7129C0.886418 43.4737 -0.0162015 38.9236 -3.06477e-05 34.3304C0.0161402 29.7372 0.950775 25.1935 2.74889 20.9669C4.547 16.7402 7.17227 12.9158 10.4703 9.71871C13.7682 6.52163 17.6723 4.01641 21.9528 2.35045C26.2333 0.684496 30.8038 -0.108558 35.3953 0.0179514C39.9868 0.14446 44.5066 1.18798 48.6889 3.08711C52.8712 4.98624 56.6314 7.70263 59.7483 11.0765Z" fill="#F3EA6C"/>
<path d="M69.9999 35.5872C70.0005 42.5108 67.9148 49.274 64.0146 54.9946C60.1145 60.7152 54.581 65.1278 48.1359 67.6569C41.6907 70.1859 34.633 70.7141 27.8832 69.1725C21.1334 67.6309 15.0048 64.091 10.2966 59.0146C16.7091 65.3191 25.3327 68.866 34.3252 68.8977C43.3177 68.9293 51.966 65.4432 58.4227 59.1841C64.8794 52.9249 68.6325 44.389 68.8802 35.3999C69.1278 26.4107 65.8505 17.6811 59.7482 11.0759C63.0007 14.2749 65.5826 18.0903 67.3429 22.299C69.1031 26.5077 70.0064 31.0252 69.9999 35.5872Z" fill="#D3952B"/>
<path d="M68.871 34.4469C68.8675 41.2307 66.8611 47.8625 63.1033 53.5104C59.3454 59.1583 54.0036 63.571 47.7478 66.1949C41.4919 68.8187 34.6006 69.5371 27.9381 68.2597C21.2756 66.9823 15.1386 63.7662 10.2969 59.0146C4.19461 52.4094 0.917262 43.6798 1.16494 34.6907C1.41261 25.7015 5.16568 17.1656 11.6224 10.9065C18.0791 4.6473 26.7274 1.16118 35.7199 1.19284C44.7124 1.2245 53.336 4.77143 59.7485 11.0759C65.6315 17.4347 68.8906 25.7841 68.871 34.4469Z" fill="#FFC131"/>
<path d="M34.9097 66.5677C52.0323 66.5677 65.913 52.6871 65.913 35.5645C65.913 18.4419 52.0323 4.56128 34.9097 4.56128C17.7871 4.56128 3.90649 18.4419 3.90649 35.5645C3.90649 52.6871 17.7871 66.5677 34.9097 66.5677Z" fill="#D39828"/>
<path d="M35.6888 66.3759C52.431 66.3759 66.0033 52.8845 66.0033 36.242C66.0033 19.5995 52.431 6.10815 35.6888 6.10815C18.9465 6.10815 5.37427 19.5995 5.37427 36.242C5.37427 52.8845 18.9465 66.3759 35.6888 66.3759Z" fill="#F6E867"/>
<path d="M34.7177 65.7888C51.3228 65.7888 64.7839 52.3277 64.7839 35.7226C64.7839 19.1176 51.3228 5.65649 34.7177 5.65649C18.1127 5.65649 4.65161 19.1176 4.65161 35.7226C4.65161 52.3277 18.1127 65.7888 34.7177 65.7888Z" fill="#FFC131"/>
<g opacity="0.66">
<path opacity="0.66" d="M12.0129 51.563C12.0899 53.5881 12.9484 55.5047 14.4084 56.9103C15.8684 58.3159 17.8162 59.1011 19.8428 59.1011C21.8694 59.1011 23.8172 58.3159 25.2772 56.9103C26.7371 55.5047 27.5957 53.5881 27.6726 51.563V50.4339L46.55 31.613C47.9915 31.9712 49.5013 31.9481 50.9311 31.546C52.3609 31.1439 53.6615 30.3766 54.7048 29.3195C55.7482 28.2624 56.4986 26.952 56.882 25.5171C57.2655 24.0822 57.2689 22.5722 56.892 21.1355C56.823 20.8956 56.6949 20.6767 56.5193 20.4992C56.3437 20.3216 56.1263 20.1911 55.8871 20.1194C55.6388 20.0435 55.3742 20.0381 55.123 20.1039C54.8718 20.1697 54.6438 20.3041 54.4646 20.492L51.9355 23.1565C51.7071 23.3995 51.4242 23.5846 51.1101 23.6965C50.7959 23.8084 50.4597 23.8439 50.1291 23.8001C49.8062 23.7515 49.4976 23.6335 49.2248 23.4542C48.9519 23.2749 48.7211 23.0385 48.5484 22.7614C48.3075 22.3072 48.2287 21.7843 48.3252 21.2793C48.4217 20.7743 48.6876 20.3173 49.0791 19.9839L51.5629 17.4662C51.7509 17.287 51.8853 17.059 51.9511 16.8078C52.0169 16.5565 52.0115 16.292 51.9355 16.0436C51.8647 15.8076 51.7339 15.5941 51.5557 15.4239C51.3776 15.2537 51.1583 15.1326 50.9194 15.0726C48.726 14.5026 46.3961 14.8271 44.4419 15.9746C42.4877 17.1221 41.0692 18.9988 40.4984 21.192C40.1147 22.65 40.1147 24.1824 40.4984 25.6404L21.9823 44.0323C21.2835 43.8365 20.5627 43.7303 19.8371 43.7162C18.8082 43.7177 17.7896 43.9218 16.8395 44.317C15.8894 44.7121 15.0265 45.2905 14.2999 46.0191C13.5734 46.7478 12.9975 47.6124 12.6051 48.5636C12.2127 49.5148 12.0115 50.534 12.0129 51.563ZM14.5984 51.563L17.1275 47.1936H22.1742L24.692 51.563L22.1742 55.9323H17.1275L14.5984 51.563Z" fill="#3B2314"/>
</g>
<path d="M12.0129 50.4338C12.0899 52.459 12.9484 54.3756 14.4084 55.7811C15.8684 57.1867 17.8162 57.9719 19.8428 57.9719C21.8694 57.9719 23.8172 57.1867 25.2772 55.7811C26.7371 54.3756 27.5957 52.459 27.6726 50.4338V49.3048L46.55 30.4838C47.9915 30.842 49.5013 30.819 50.9311 30.4168C52.3609 30.0147 53.6615 29.2474 54.7048 28.1904C55.7482 27.1333 56.4986 25.8229 56.882 24.388C57.2655 22.9531 57.2689 21.443 56.892 20.0064C56.823 19.7664 56.6949 19.5476 56.5193 19.37C56.3437 19.1925 56.1263 19.0619 55.8871 18.9903C55.6388 18.9143 55.3742 18.9089 55.123 18.9747C54.8718 19.0405 54.6438 19.1749 54.4646 19.3629L51.9355 22.0274C51.7071 22.2704 51.4242 22.4555 51.1101 22.5674C50.7959 22.6793 50.4597 22.7148 50.1291 22.6709C49.8062 22.6224 49.4976 22.5044 49.2248 22.325C48.9519 22.1457 48.7211 21.9093 48.5484 21.6322C48.3075 21.178 48.2287 20.6552 48.3252 20.1502C48.4217 19.6451 48.6876 19.1882 49.0791 18.8548L51.5629 16.337C51.7509 16.1578 51.8853 15.9298 51.9511 15.6786C52.0169 15.4274 52.0115 15.1628 51.9355 14.9145C51.8647 14.6785 51.7339 14.4649 51.5557 14.2947C51.3776 14.1245 51.1583 14.0035 50.9194 13.9435C48.726 13.3735 46.3961 13.6979 44.4419 14.8455C42.4877 15.993 41.0692 17.8697 40.4984 20.0629C40.1147 21.5208 40.1147 23.0533 40.4984 24.5112L21.9823 42.9032C21.2835 42.7074 20.5627 42.6012 19.8371 42.5871C18.8082 42.5885 17.7896 42.7927 16.8395 43.1878C15.8894 43.5829 15.0265 44.1613 14.2999 44.89C13.5734 45.6186 12.9975 46.4832 12.6051 47.4345C12.2127 48.3857 12.0115 49.4049 12.0129 50.4338ZM14.5984 50.4338L17.1275 46.0645H22.1742L24.692 50.4338L22.1742 54.8032H17.1275L14.5984 50.4338Z" fill="#CDA349"/>
</g>
<defs>
<clipPath id="clip0">
<rect width="70" height="70.0339" fill="white"/>
</clipPath>
</defs>
</svg>
