<svg xmlns="http://www.w3.org/2000/svg" viewBox="0 0 64 64"><defs><style>.cls-1{fill:#f3ea6c;}.cls-2{fill:#d3952b;}.cls-3{fill:#ffc131;}.cls-4{fill:#d39828;}.cls-5{fill:#f6e867;}.cls-6{fill:#42210b;opacity:0.66;}.cls-7{fill:#e2c675;}.cls-8{fill:#cda349;}</style></defs><title>Chat</title><g id="Chat"><path class="cls-1" d="M53.42,11.29A30.51,30.51,0,0,0,9.62,53.75a30.51,30.51,0,1,1,43.8-42.46Z"/><path class="cls-2" d="M62.5,33A30.51,30.51,0,0,1,9.62,53.75a30.51,30.51,0,0,0,43.8-42.46A30.41,30.41,0,0,1,62.5,33Z"/><path class="cls-3" d="M61.52,32A30.51,30.51,0,0,1,9.62,53.75a30.51,30.51,0,0,1,43.8-42.46A30.39,30.39,0,0,1,61.52,32Z"/><circle class="cls-4" cx="31.42" cy="32.98" r="27.46"/><ellipse class="cls-5" cx="32.11" cy="33.58" rx="26.85" ry="26.69"/><circle class="cls-3" cx="31.25" cy="33.13" r="26.63"/><path class="cls-6" d="M51.13,29.51c0-7.74-7-14-15.63-14a15.83,15.83,0,0,0-14.11,8h0a13.61,13.61,0,0,0-6.5,11.38,12.93,12.93,0,0,0,2.58,7.71c-.21,2.56-.83,6.16-2.58,7.91a28.13,28.13,0,0,0,9-2.94,17.1,17.1,0,0,0,6.64,1.32,16.13,16.13,0,0,0,13-6.18,13.2,13.2,0,0,0,.9-1.35,14.36,14.36,0,0,1-1,1.49,30.43,30.43,0,0,0,7.78,2.29c-1.76-1.75-2.37-5.35-2.59-7.91A12.94,12.94,0,0,0,51.13,29.51ZM29.62,20.9q-.44,0-.84.06Q29.19,20.92,29.62,20.9ZM28.35,21l-.6.08Zm-6,15.74a1.88,1.88,0,1,1,1.87-1.87A1.88,1.88,0,0,1,22.38,36.75Zm3.25-15.18a15.12,15.12,0,0,0-2.22.83c-.34.15-.68.32-1,.5l0,0-.44.26a16.59,16.59,0,0,1,5.62-2.05,8.7,8.7,0,0,0-1,.21A8.75,8.75,0,0,0,25.63,21.57ZM30.5,36.75a1.88,1.88,0,1,1,1.88-1.87A1.88,1.88,0,0,1,30.5,36.75Zm8.12,0a1.88,1.88,0,1,1,1.88-1.87A1.87,1.87,0,0,1,38.62,36.75Zm5.75,4.55c.08-.13.16-.26.23-.4.2-.37.37-.74.53-1.12A12.68,12.68,0,0,1,44.37,41.3Zm.86-1.78c.09-.21.17-.43.24-.65C45.4,39.09,45.32,39.31,45.23,39.52Zm.35-1c.07-.24.14-.47.19-.72C45.72,38.05,45.65,38.28,45.58,38.52Zm.26-1,.06-.31c0-.2.07-.41.1-.62C46,36.89,45.9,37.2,45.84,37.51Zm.2-1.25c0-.2,0-.4.05-.61C46.08,35.86,46.06,36.06,46,36.26Zm.07-1c0-.12,0-.24,0-.36,0-7.74-7-14-15.62-14h0c8.63,0,15.63,6.27,15.63,14C46.13,35,46.11,35.12,46.11,35.24Z"/><path class="cls-7" d="M29.5,19.87l-.78,0c-.36,0-.71,0-1.06.08h0c-.31,0-.63.08-.94.13a11,11,0,0,0-1.17.24,8.75,8.75,0,0,0-.88.23,15.12,15.12,0,0,0-2.22.83c-.34.15-.68.32-1,.5l0,0c-.23.12-.45.25-.67.39l-.32.19a13.61,13.61,0,0,0-6.5,11.38,12.93,12.93,0,0,0,2.58,7.71c-.21,2.56-.83,6.16-2.58,7.91a28.13,28.13,0,0,0,9-2.94,17.1,17.1,0,0,0,6.64,1.32,16.13,16.13,0,0,0,13-6.18,11.53,11.53,0,0,0,.92-1.39c.08-.14.16-.27.23-.41.21-.4.4-.8.57-1.21a12,12,0,0,0,.62-1.95c0-.18.08-.36.11-.54a11.27,11.27,0,0,0,.2-1.65c0-.22,0-.45,0-.67C45.12,26.14,38.13,19.87,29.5,19.87ZM21.38,35.75a1.88,1.88,0,1,1,1.87-1.87A1.88,1.88,0,0,1,21.38,35.75Zm8.12,0a1.88,1.88,0,1,1,1.88-1.87A1.88,1.88,0,0,1,29.5,35.75Zm8.12,0a1.88,1.88,0,1,1,1.88-1.87A1.87,1.87,0,0,1,37.62,35.75Z"/><path class="cls-8" d="M50.13,28.51c0-7.74-7-14-15.63-14a15.85,15.85,0,0,0-14.12,8,16.87,16.87,0,0,1,9.12-2.63c8.63,0,15.63,6.27,15.63,14a13,13,0,0,1-2.78,8,30.43,30.43,0,0,0,7.78,2.29c-1.76-1.75-2.37-5.35-2.59-7.91A12.94,12.94,0,0,0,50.13,28.51Z"/></g></svg>